<?xml version="1.0" encoding="UTF-8"?>
<svg width="144px" height="149px" viewBox="0 0 144 149" version="1.1" xmlns="http://www.w3.org/2000/svg" xmlns:xlink="http://www.w3.org/1999/xlink">
    <!-- Generator: Sketch 42 (36781) - http://www.bohemiancoding.com/sketch -->
    <title>Bosnia Herzegovina</title>
    <desc>Created with Sketch.</desc>
    <defs>
        <path d="M12.9338241,58.2828704 C13.2479815,30.2161204 27.8532685,21.4318426 35.8078796,21.4318426 C46.9161944,21.4318426 51.5036204,29.9116667 52.2544444,33.667 C53.0040556,37.4186944 57.2081852,40.4195648 58.5594259,34.2662037 C59.9106667,28.1116296 72.9803426,9.34709259 89.0399722,9.34709259 C103.749574,9.34709259 108.844019,24.5164074 108.403713,37.4186944 C107.200454,72.542463 61.9508704,100.57525 55.9952222,118.277231 C50.6921481,107.554639 12.5602315,92.059037 12.9338241,58.2828704 Z M94.2945278,0.64287037 C81.0853611,0.64287037 65.4623981,10.3987315 56.0073519,26.6124074 C53.4552778,20.7562222 44.3653333,14.376037 33.5590463,14.376037 C24.8511852,14.376037 0.408768519,25.2587407 0.408768519,60.3849352 C0.408768519,105.715787 46.2721111,115.027704 55.544,129.116269 C56.1808056,130.085426 58.2343519,130.816843 59.016713,128.501296 C66.4145741,106.667963 123.780444,81.9999352 123.780444,37.5691019 C123.780444,12.6512037 107.503694,0.64287037 94.2945278,0.64287037 L94.2945278,0.64287037 Z" id="path-1"></path>
        <filter x="-50%" y="-50%" width="200%" height="200%" filterUnits="objectBoundingBox" id="filter-2">
            <feOffset dx="0" dy="0" in="SourceAlpha" result="shadowOffsetOuter1"></feOffset>
            <feGaussianBlur stdDeviation="5" in="shadowOffsetOuter1" result="shadowBlurOuter1"></feGaussianBlur>
            <feColorMatrix values="0 0 0 0 0   0 0 0 0 0   0 0 0 0 0  0 0 0 0.266191123 0" type="matrix" in="shadowBlurOuter1"></feColorMatrix>
        </filter>
    </defs>
    <g id="Page-1" stroke="none" stroke-width="1" fill="none" fill-rule="evenodd">
        <g id="Bosnia-Herzegovina" transform="translate(9.660156, 9.839844)">
            <path d="M14.9376389,42.6526296 L20.2310093,45.9518889 L18.0319074,52.9749444 L23.7849907,48.1910185 L29.539287,51.7619815 L27.3559537,45.1998519 L33.0956944,40.4001574 L25.9840926,41.1497685 L23.7849907,34.5924907 L21.5931667,41.6131204 L15.0346759,42.3045093 C15.1013889,42.0691944 15.1668889,41.8350926 15.2360278,41.6046296 L15.2372407,41.6022037 L15.2396667,41.591287 L14.9376389,42.6526296 Z M7.37238889,51.3447222 C7.51309259,51.1555 18.0015833,31.4108889 18.1435,31.2289444 L19.8525648,31.2253056 C19.9932685,31.0445741 20.1351852,30.8674815 20.2783148,30.6928148 L20.2940833,30.6734074 C20.436,30.5023796 20.5779167,30.3337778 20.7210463,30.1676019 L20.7368148,30.1481944 C21.1771204,29.639963 22.8437315,27.8120278 23.2961667,27.3620185 L23.3082963,27.3486759 C23.5229907,27.1351944 23.7401111,26.9314167 23.9572315,26.7312778 L85.8280463,82.2971111 C83.7987593,84.6114444 81.7403611,86.8663426 79.6989444,89.0581667 L79.3241389,89.0969815 L77.1286759,82.5384907 L74.9368519,89.5603333 L67.8179722,90.3123704 L73.5746944,93.8978889 L72.802037,96.3638426 L72.4272315,96.7592685 L72.0560648,97.1534815 L71.3173704,97.9358426 L70.9510556,98.3239907 L70.380963,98.9316852 L70.2257037,99.0966481 L69.8666667,99.4811574 L69.7004907,99.659463 L69.3353889,100.052463 L68.6706852,100.766898 L68.3249907,101.141704 L67.6069167,101.925278 L67.4164815,102.133907 C67.1532685,102.422593 66.8936944,102.708852 66.6365463,102.993898 L66.4291296,103.224361 C66.1756204,103.505769 65.92575,103.785963 65.6783056,104.064944 L65.5024259,104.26387 C65.2537685,104.545278 65.00875,104.825472 64.7673704,105.103241 L64.5951296,105.299741 C64.3391944,105.595704 64.0881111,105.888028 63.8406667,106.179139 L63.7399907,106.298009 C63.4852685,106.597611 63.2353981,106.896 62.9891667,107.193176 L62.8775741,107.327815 C62.6289167,107.629843 62.3838981,107.929444 62.1449444,108.22662 L62.0988519,108.284843 C61.8477685,108.596574 61.601537,108.908306 61.3613704,109.216398 L61.3468148,109.234593 L61.3237685,109.26613 C61.0872407,109.570583 60.8555648,109.873824 60.6299537,110.174639 L60.6069074,110.204963 L60.5947778,110.221944 C60.3679537,110.526398 60.1471944,110.828426 59.9325,111.128028 L59.8924722,111.182611 C59.6826296,111.474935 59.4800648,111.766046 59.2835648,112.055944 L59.2301944,112.132361 C59.0239907,112.436815 58.8250648,112.742481 58.623713,113.050574 C58.1870463,113.733472 57.5635833,117.811454 56.4961759,119.6685 C55.7756759,120.922704 11.4443056,85.5527037 11.1058889,85.6606574 L7.37238889,51.3447222 Z M63.7945741,70.5532037 L61.5966852,77.5750463 L54.4826574,78.3246574 L60.2381667,81.9126019 L58.0402778,88.9356574 L63.7945741,84.1529444 L69.5464444,87.7226944 L67.3643241,81.1593519 L73.1052778,76.3596574 L65.990037,77.1104815 L63.7945741,70.5532037 Z M50.4580463,58.5667037 L48.2613704,65.5885463 L41.1461296,66.3381574 L46.9028519,69.9236759 L44.7001111,76.9491574 L50.4580463,72.1652315 L56.2123426,75.7337685 L54.0241574,69.1728519 L59.769963,64.3731574 L52.6535093,65.1239815 L50.4580463,58.5667037 Z M37.1215185,46.5789907 L34.9284815,53.5996204 L27.8108148,54.3516574 L33.5663241,57.9383889 L31.3647963,64.9626574 L37.1215185,60.1775185 L42.8770278,63.7472685 L40.6876296,57.1863519 L46.4334352,52.3854444 L39.3194074,53.1374815 L37.1215185,46.5789907 L37.1215185,46.5789907 Z" id="Fill-1" fill="#292D78"></path>
            <polyline id="Fill-2" fill="#FFFFFF" points="16.2063981 39.7742685 15.8958796 39.5814074 16.0232407 39.2247963 16.2063981 39.7742685"></polyline>
            <path d="M85.8280463,82.2971111 L23.9572315,26.7312778 C24.0385,26.6560741 24.1197685,26.5796574 24.20225,26.5056667 L24.2507685,26.462 C24.3890463,26.3394907 24.5261111,26.2181944 24.6643889,26.100537 L24.7056296,26.0653611 C24.8536111,25.9404259 25.0015926,25.8167037 25.150787,25.6966204 L25.1701944,25.6820648 C25.314537,25.5656204 25.4588796,25.4528148 25.6032222,25.3412222 L25.6493148,25.3060463 C25.7948704,25.1944537 25.9428519,25.085287 26.0896204,24.9785463 L26.0920463,24.9761204 L26.0981111,24.9724815 L26.1126667,24.9615648 C26.2582222,24.856037 26.4037778,24.7541481 26.5493333,24.6534722 L26.5881481,24.628 C26.7385556,24.5248981 26.888963,24.4242222 27.0393704,24.3271852 L27.0430093,24.3247593 C27.1970556,24.2252963 27.3511019,24.1282593 27.5051481,24.0336481 L27.5245556,24.0227315 C27.6688981,23.9353981 27.8120278,23.8492778 27.9551574,23.7667963 L28.0097407,23.7352593 C28.1528704,23.6527778 28.297213,23.5727222 28.4403426,23.4950926 L28.4536852,23.4878148 L28.4755185,23.4768981 C28.6198611,23.3992685 28.7629907,23.3240648 28.9061204,23.251287 L28.9425093,23.2330926 C29.244537,23.0802593 29.5465648,22.9383426 29.8449537,22.8061296 L29.8631481,22.7988519 C30.0087037,22.7345648 30.1530463,22.6727037 30.2973889,22.6144815 L30.3240741,22.6023519 C30.4732685,22.5417037 30.62125,22.4846944 30.7680185,22.4288981 L30.7740833,22.4264722 C30.9220648,22.3706759 31.0676204,22.3173056 31.2143889,22.2675741 L31.2337963,22.2602963 C31.375713,22.2117778 31.5164167,22.1644722 31.6559074,22.1208056 L31.6716759,22.1147407 L31.6862315,22.1111019 C31.8269352,22.0674352 31.965213,22.0249815 32.1034907,21.9861667 L32.1338148,21.9776759 C32.2684537,21.9388611 32.4030926,21.9024722 32.5365185,21.8685093 L32.5656296,21.8612315 C32.7039074,21.8260556 32.8421852,21.7933056 32.978037,21.7629815 L32.9998704,21.7581296 C33.1332963,21.7290185 33.2642963,21.7011204 33.3940833,21.6756481 L33.4328981,21.6683704 C33.5638981,21.6428981 33.6948981,21.6198519 33.8246852,21.5992315 L33.831963,21.5980185 L33.8392407,21.5968056 C33.9690278,21.5761852 34.0963889,21.5567778 34.224963,21.5397963 L34.2698426,21.5349444 C34.3899259,21.5191759 34.5100093,21.5046204 34.6276667,21.4937037 L34.6592037,21.4900648 C34.7829259,21.4779352 34.9054352,21.4670185 35.0267315,21.4597407 L35.0679722,21.4561019 C35.1832037,21.4488241 35.2972222,21.4439722 35.4100278,21.4391204 L35.4476296,21.4379074 C35.5689259,21.4342685 35.6890093,21.4318426 35.8078796,21.4318426 C46.9161944,21.4318426 51.5036204,29.9116667 52.2544444,33.667 C52.2653611,33.7227963 52.2774907,33.7785926 52.2908333,33.8343889 L52.2932593,33.8453056 L52.3308611,34.0005648 L52.3405648,34.0381667 C52.368463,34.1449074 52.398787,34.2504352 52.43275,34.355963 L52.433963,34.3596019 L52.4388148,34.3753704 L52.4836944,34.5087963 L52.49825,34.550037 L52.5419167,34.6701204 L52.5588981,34.716213 L52.6159074,34.8605556 L52.6171204,34.8629815 L52.6850463,35.0218796 L52.6983889,35.0522037 L52.7517593,35.1674352 L52.7699537,35.20625 L52.8293889,35.3287593 L52.8342407,35.338463 L52.8439444,35.3566574 L52.9130833,35.4876574 L52.9155093,35.4937222 L52.9895,35.6259352 L53.0089074,35.6598981 L53.0731944,35.7702778 L53.0853241,35.7896852 L53.0962407,35.8066667 L53.1726574,35.9291759 L53.1762963,35.9340278 L53.1787222,35.9376667 L53.2612037,36.0601759 L53.2745463,36.0807963 L53.3582407,36.1984537 L53.3764352,36.222713 L53.4601296,36.3343056 L53.4649815,36.3403704 C53.5304815,36.4252778 53.5996204,36.5089722 53.6687593,36.5890278 L53.6711852,36.5914537 C53.7051481,36.6302685 53.7403241,36.6690833 53.7755,36.7066852 L53.7791389,36.7103241 C53.8494907,36.7855278 53.9210556,36.8583056 53.9950463,36.9274444 L53.9962593,36.9286574 C54.0338611,36.9638333 54.07025,36.9977963 54.1078519,37.0305463 L54.1090648,37.0317593 C54.1830556,37.0972593 54.2594722,37.1591204 54.3358889,37.2173426 L54.3395278,37.2197685 C54.3747037,37.2464537 54.4110926,37.2731389 54.4474815,37.2986111 L54.46325,37.3095278 C54.5360278,37.3604722 54.6100185,37.4065648 54.6840093,37.4502315 L54.693713,37.4562963 L54.7009907,37.4611481 C54.7373796,37.4817685 54.7725556,37.5011759 54.8089444,37.5193704 L54.8186481,37.5254352 C54.857463,37.5448426 54.8962778,37.563037 54.9338796,37.5812315 L54.9375185,37.5836574 C54.9763333,37.6006389 55.0139352,37.6176204 55.05275,37.6333889 L55.0563889,37.6346019 L55.0576019,37.6358148 L55.0648796,37.6382407 C55.1024815,37.6527963 55.1388704,37.6661389 55.1764722,37.6794815 L55.18375,37.6819074 C55.2201389,37.69525 55.2577407,37.7061667 55.2941296,37.7170833 L55.313537,37.7219352 C55.3511389,37.7328519 55.3899537,37.7425556 55.4275556,37.7510463 L55.4287685,37.7510463 C55.4700093,37.759537 55.510037,37.7668148 55.5500648,37.7740926 L55.5524907,37.7740926 C55.5913056,37.7801574 55.6289074,37.7850093 55.6677222,37.7886481 L55.6822778,37.7898611 C55.7198796,37.7935 55.7574815,37.7959259 55.7950833,37.7971389 L55.806,37.7971389 L55.8508796,37.7983519 L55.9163796,37.7971389 L55.9285093,37.7959259 C55.9673241,37.794713 56.0061389,37.7910741 56.0437407,37.7874352 L56.0473796,37.7874352 C56.0874074,37.7825833 56.1274352,37.7765185 56.167463,37.7704537 L56.1686759,37.7692407 C56.2074907,37.761963 56.2475185,37.7534722 56.2863333,37.7437685 L56.2923981,37.7425556 C56.3324259,37.7328519 56.3712407,37.7207222 56.4100556,37.7085926 L56.4100556,37.7073796 C56.4488704,37.69525 56.4876852,37.6806944 56.525287,37.6649259 L56.5362037,37.661287 C56.6126204,37.628537 56.689037,37.5909352 56.7642407,37.5472685 L56.7690926,37.5436296 C56.8066944,37.5217963 56.8418704,37.499963 56.8794722,37.4744907 L56.885537,37.4708519 C56.9595278,37.4199074 57.0323056,37.3628981 57.1038704,37.2998241 L57.114787,37.2901204 C57.1863519,37.2270463 57.2567037,37.1579074 57.3258426,37.0814907 L57.3331204,37.073 C57.3670833,37.0353981 57.4010463,36.9953704 57.4337963,36.9553426 L57.4362222,36.9517037 C57.4701852,36.910463 57.5029352,36.8680093 57.5356852,36.8231296 L57.5393241,36.8170648 L57.540537,36.8146389 C57.5745,36.7697593 57.60725,36.7224537 57.638787,36.6727222 L57.6436389,36.6666574 C57.7091389,36.5671944 57.7734259,36.4592407 57.835287,36.3440093 L57.8389259,36.3391574 C57.8668241,36.285787 57.8959352,36.2299907 57.9238333,36.1741944 L57.93475,36.1535741 C57.9638611,36.0929259 57.9929722,36.0310648 58.0208704,35.9679907 L58.0220833,35.9655648 C58.0487685,35.9049167 58.0766667,35.8418426 58.1021389,35.7763426 L58.1166944,35.7423796 C58.1421667,35.6780926 58.1676389,35.6113796 58.1931111,35.5446667 L58.1943241,35.5410278 C58.2210093,35.46825 58.2464815,35.3942593 58.2719537,35.3178426 L58.2743796,35.3093519 C58.2998519,35.2341481 58.3253241,35.1565185 58.3483704,35.0776759 L58.3520093,35.0667593 C58.3738426,34.9915556 58.3968889,34.9151389 58.4187222,34.8362963 L58.4235741,34.8156759 L58.4284259,34.8011204 C58.4490463,34.7247037 58.4684537,34.6470741 58.4878611,34.5682315 L58.4987778,34.5245648 C58.5193981,34.4396574 58.5388056,34.353537 58.5594259,34.2662037 C59.9106667,28.1116296 72.9803426,9.34709259 89.0399722,9.34709259 C89.2680093,9.34709259 89.4948333,9.35194444 89.7180185,9.35800926 L89.7289352,9.35800926 C89.9436296,9.3665 90.1571111,9.3762037 90.3681667,9.3895463 L90.4118333,9.39318519 C90.6241019,9.40652778 90.8351574,9.42472222 91.043787,9.44534259 L91.046213,9.44534259 C91.2609074,9.46717593 91.471963,9.49264815 91.6818056,9.5205463 L91.6939352,9.52175926 C91.9001389,9.54965741 92.1051296,9.58119444 92.3064815,9.61637037 L92.321037,9.6187963 C92.5223889,9.65275926 92.7225278,9.69036111 92.9202407,9.73160185 L92.9323704,9.73402778 C93.1288704,9.77526852 93.3253704,9.81893519 93.5182315,9.86624074 L93.5267222,9.86866667 L93.534,9.87109259 C93.7268611,9.91839815 93.9172963,9.96934259 94.1053056,10.022713 L94.124713,10.0275648 C94.3090833,10.0809352 94.4910278,10.1355185 94.6717593,10.1937407 L94.6996574,10.2034444 C94.8803889,10.2616667 95.0586944,10.3235278 95.235787,10.3878148 L95.2551944,10.3950926 C95.432287,10.4593796 95.6069537,10.5273056 95.7804074,10.5976574 L95.79375,10.6025093 L95.7998148,10.6061481 C95.9756944,10.677713 96.1491481,10.7529167 96.3213889,10.8293333 L96.3347315,10.8353981 C96.5057593,10.9130278 96.6731481,10.9930833 96.840537,11.0755648 L96.8550926,11.0828426 C97.0188426,11.1641111 97.1825926,11.2490185 97.3439167,11.3363519 L97.3560463,11.3424167 L97.3681759,11.3496944 C97.530713,11.4382407 97.692037,11.529213 97.8497222,11.6226111 L97.8521481,11.6226111 C98.0110463,11.7172222 108.403713,12.0422963 108.558972,12.1417593 L108.575954,12.1526759 C108.73,12.2509259 108.88162,12.3516019 109.030815,12.4547037 L109.041731,12.4619815 C109.42988,12.7300463 109.802259,13.0150926 110.163722,13.3146944 L110.163722,63.6562963 C106.207037,70.3178889 91.0037593,76.3899815 85.8280463,82.2971111" id="Fill-3" fill="#F7C523"></path>
            <polygon id="Fill-25" fill="#292D78" points="14.5458519 40.4256296 17.421787 40.4256296 17.421787 37.9329907 14.5458519 37.9329907"></polygon>
            <g id="Fill-26">
                <use fill="black" fill-opacity="1" filter="url(#filter-2)" xlink:href="#path-1"></use>
                <use fill="#FFFFFF" fill-rule="evenodd" xlink:href="#path-1"></use>
            </g>
        </g>
    </g>
</svg>